<svg xmlns="http://www.w3.org/2000/svg" version="1.1" xmlns:xlink="http://www.w3.org/1999/xlink" width="24" height="24"><svg width="24" height="24" viewBox="0 0 24 24" fill="none" xmlns="http://www.w3.org/2000/svg">
<rect width="24" height="24" fill="#D21258"></rect>
<path d="M4.93405 6.49388L5.9027 6C6.16793 6.22247 6.43315 6.47163 6.69838 6.7475C6.9636 7.01446 7.21153 7.27697 7.44216 7.53504C7.67279 7.7931 7.8573 8.02447 7.99568 8.22914L6.94054 8.81646C6.81369 8.61179 6.63495 8.37597 6.40432 8.10901C6.18523 7.83315 5.94306 7.55729 5.67784 7.28142C5.42414 6.99666 5.17622 6.73415 4.93405 6.49388ZM6.30054 17.6529L6.05838 16.7052L6.36973 16.3048L9.08541 14.7564C9.14306 14.8899 9.21802 15.0412 9.31027 15.2102C9.41405 15.3704 9.50054 15.495 9.56973 15.584C8.91243 15.9666 8.38198 16.2781 7.97838 16.5184C7.57477 16.7586 7.26342 16.9499 7.04432 17.0923C6.82523 17.2347 6.65802 17.3459 6.5427 17.426C6.43892 17.515 6.3582 17.5907 6.30054 17.6529ZM4 9.87097H7.26919V10.832H4V9.87097ZM9.58703 6.40044H18.0108V7.29477H9.58703V6.40044ZM17.6303 6.40044H17.8724L18.0973 6.3604L18.9449 6.7208C18.4951 7.40601 17.9301 8.02892 17.2497 8.58954C16.5694 9.14127 15.8025 9.6396 14.9492 10.0845C14.0959 10.5206 13.1964 10.8988 12.2508 11.2191C11.3168 11.5395 10.3712 11.802 9.41405 12.0067C9.36793 11.9266 9.3045 11.8331 9.22378 11.7264C9.15459 11.6196 9.07387 11.5172 8.98162 11.4194C8.88937 11.3126 8.80288 11.2236 8.72216 11.1524C9.63315 10.9833 10.5326 10.7564 11.4205 10.4716C12.32 10.1869 13.1733 9.85317 13.9805 9.47052C14.7877 9.07898 15.5085 8.64294 16.1427 8.1624C16.7769 7.67297 17.2728 7.14349 17.6303 6.57397V6.40044ZM11.7319 6.81424C12.2277 7.51724 12.885 8.14905 13.7038 8.70968C14.5225 9.2703 15.4681 9.74638 16.5405 10.1379C17.613 10.5295 18.7661 10.8276 20 11.0323C19.9077 11.0945 19.8097 11.1746 19.7059 11.2725C19.6022 11.3704 19.5041 11.4727 19.4119 11.5795C19.3312 11.6863 19.2562 11.7842 19.187 11.8732C17.9416 11.6329 16.7769 11.2903 15.693 10.8454C14.609 10.4004 13.6404 9.86652 12.787 9.2436C11.9452 8.62069 11.2533 7.91324 10.7114 7.12125L11.7319 6.81424ZM10.3135 12.5806H18.4951V13.475H10.3135V12.5806ZM9.36216 14.9032H19.6195V15.7976H9.36216V14.9032ZM13.7557 11.406H15.0357V18H13.7557V11.406ZM6.30054 17.6529C6.26595 17.5729 6.20252 17.4883 6.11027 17.3993C6.01802 17.3103 5.92577 17.2169 5.83351 17.119C5.74126 17.03 5.65477 16.9633 5.57405 16.9188C5.7355 16.8209 5.91423 16.6607 6.11027 16.4383C6.31784 16.2158 6.42162 15.9399 6.42162 15.6107V9.87097H7.68432V16.3448C7.68432 16.3448 7.6382 16.376 7.54595 16.4383C7.45369 16.5006 7.33838 16.5851 7.2 16.6919C7.06162 16.7898 6.92324 16.8966 6.78486 17.0122C6.64649 17.1279 6.53117 17.2436 6.43892 17.3593C6.34667 17.475 6.30054 17.5729 6.30054 17.6529Z" fill="#F0E592"></path>
</svg><style>@media (prefers-color-scheme: light) { :root { filter: none; } }
@media (prefers-color-scheme: dark) { :root { filter: none; } }
</style></svg>